<?xml version="1.0" encoding="UTF-8"?>
<svg version="1.1" xmlns="http://www.w3.org/2000/svg" width="87" height="57">
<path d="M0 0 C2.86697492 1.28519565 4.97607712 2.57129254 7 5 C7 5.66 7 6.32 7 7 C8.485 7.495 8.485 7.495 10 8 C10.66 8.99 11.32 9.98 12 11 C17.445 5.555 17.445 5.555 23 0 C27.1725131 2.08625655 29.86737361 4.61158887 33.078125 7.8828125 C33.64956238 8.45707977 34.22099976 9.03134705 34.80975342 9.62301636 C36.62792945 11.4523581 38.43901492 13.28854193 40.25 15.125 C41.48391329 16.36894774 42.71828322 17.6124427 43.953125 18.85546875 C46.97406743 21.89842367 49.98867092 24.94753254 53 28 C51.37220787 32.04256217 48.51665728 34.84055384 45.51171875 37.89453125 C44.97150589 38.44614426 44.43129303 38.99775726 43.87471008 39.56608582 C42.73351091 40.72612721 41.58941536 41.88332548 40.44262695 43.0378418 C38.68978246 44.81019214 36.95939376 46.60270989 35.22851562 48.39648438 C34.11590811 49.52214429 33.00201806 50.64653829 31.88671875 51.76953125 C31.3719548 52.3089888 30.85719086 52.84844635 30.326828 53.4042511 C28.83081055 54.88208008 28.83081055 54.88208008 26 57 C22.57590707 56.93066288 21.45016149 56.40405556 18.90234375 54.1171875 C17.58873478 52.61815857 16.27624032 51.11815229 14.96484375 49.6171875 C13.14390541 47.74479924 13.14390541 47.74479924 10.83203125 48.12890625 C8.42117532 49.27521941 7.94369094 50.56213175 7 53 C6.34 53 5.68 53 5 53 C4.67 53.99 4.34 54.98 4 56 C1.1875 56.6875 1.1875 56.6875 -2 57 C-3.875 55.6875 -3.875 55.6875 -5 54 C-5 53.34 -5 52.68 -5 52 C-6.485 51.505 -6.485 51.505 -8 51 C-8 50.34 -8 49.68 -8 49 C-8.99 48.67 -9.98 48.34 -11 48 C-12.23955528 46.53210559 -13.47532209 45.06012134 -14.6640625 43.55078125 C-16.10810481 41.76974769 -16.10810481 41.76974769 -18.75 39.875 C-21.12918552 37.8923454 -21.67651262 37.01921553 -22 34 C-20.68 34.33 -19.36 34.66 -18 35 C-18 33.02 -18 31.04 -18 29 C-18.99 29.33 -19.98 29.66 -21 30 C-21 30.99 -21 31.98 -21 33 C-21.99 33 -22.98 33 -24 33 C-24 30.03 -24 27.06 -24 24 C-18.06 23.67 -12.12 23.34 -6 23 C-5.34 24.32 -4.68 25.64 -4 27 C-0.7 23.7 2.6 20.4 6 17 C4.68 15.35 3.36 13.7 2 12 C2 11.34 2 10.68 2 10 C1.34 10 0.68 10 0 10 C-0.33 10.99 -0.66 11.98 -1 13 C-2.46726219 14.2390214 -3.93877812 15.47415394 -5.44921875 16.66015625 C-7.23865152 18.11156461 -7.23865152 18.11156461 -9.125 20.8125 C-9.74375 21.534375 -10.3625 22.25625 -11 23 C-12.32 23 -13.64 23 -15 23 C-15 22.34 -15 21.68 -15 21 C-16.65 21.33 -18.3 21.66 -20 22 C-19.67651262 18.98078447 -19.12918552 18.1076546 -16.75 16.125 C-15.38875 15.073125 -15.38875 15.073125 -14 14 C-13.195625 13.030625 -12.39125 12.06125 -11.5625 11.0625 C-8.89286544 7.87196114 -6.23049018 5.59843776 -3 3 C-1.98319689 2.01709032 -0.97261781 1.02665213 0 0 Z M3 7 C4 9 4 9 4 9 Z M-5 9 C-4 11 -4 11 -4 11 Z M4 9 C5 11 5 11 5 11 Z M-6 11 C-5 13 -5 13 -5 13 Z M19 12 C23 13 23 13 23 13 Z M26 12 C30 13 30 13 30 13 Z M-13 18 C-12 20 -12 20 -12 20 Z M10 18 C11 20 11 20 11 20 Z M38 19 C39 21 39 21 39 21 Z M8 22 C9 24 9 24 9 24 Z M40 23 C41 26 41 26 41 26 Z M7 24 C7 26.97 7 29.94 7 33 C7.33 33 7.66 33 8 33 C8 30.03 8 27.06 8 24 C7.67 24 7.34 24 7 24 Z M11 25 C15 26 15 26 15 26 Z M26 25 C26 27.31 26 29.62 26 32 C26.66 32 27.32 32 28 32 C28 29.69 28 27.38 28 25 C27.34 25 26.68 25 26 25 Z M30 25 C30.33 25.99 30.66 26.98 31 28 C31.99 27.67 32.98 27.34 34 27 C32.68 26.34 31.36 25.68 30 25 Z M35 25 C35.66 27.31 36.32 29.62 37 32 C37.33 32 37.66 32 38 32 C38 30.02 38 28.04 38 26 C37.01 25.67 36.02 25.34 35 25 Z M15 26 C14.67 27.98 14.34 29.96 14 32 C14.66 32 15.32 32 16 32 C16 30.02 16 28.04 16 26 C15.67 26 15.34 26 15 26 Z M19 26 C18.67 27.65 18.34 29.3 18 31 C18.99 31 19.98 31 21 31 C21 29.35 21 27.7 21 26 C20.34 26 19.68 26 19 26 Z M-12 27 C-11 29 -11 29 -11 29 Z M41 27 C42 31 42 31 42 31 Z M10 29 C11 32 11 32 11 32 Z M40 31 C39.67 32.65 39.34 34.3 39 36 C39.66 35.67 40.32 35.34 41 35 C40.67 33.68 40.34 32.36 40 31 Z M23 31 C22.34 31.66 21.68 32.32 21 33 C21.99 33 22.98 33 24 33 C23.67 32.34 23.34 31.68 23 31 Z M-5 30 C-5.33 30.66 -5.66 31.32 -6 32 C-8.64860427 32.59355614 -11.29197322 32.74209269 -14 33 C-12.55549846 35.88900308 -10.29968171 37.75640808 -8 40 C-6.81231727 41.18768273 -5.63926438 42.39079692 -4.5 43.625 C-3.09342405 45.22524154 -3.09342405 45.22524154 -1 45 C-0.67 45.99 -0.34 46.98 0 48 C0.66 48 1.32 48 2 48 C3.7143618 46.04072937 5.38405168 44.04119788 7 42 C3.96896704 37.58335198 1.02441304 33.58934136 -3 30 C-3.66 30 -4.32 30 -5 30 Z M8 34 C9 36 9 36 9 36 Z M-17 35 C-17 36.65 -17 38.3 -17 40 C-16.34 38.68 -15.68 37.36 -15 36 C-15.66 35.67 -16.32 35.34 -17 35 Z M38 37 C38 40 38 40 38 40 Z M-13 38 C-13.33 38.66 -13.66 39.32 -14 40 C-13.34 40 -12.68 40 -12 40 C-12.33 39.34 -12.66 38.68 -13 38 Z M-10 43 C-9.67 43.66 -9.34 44.32 -9 45 C-8.67 44.34 -8.34 43.68 -8 43 C-8.66 43 -9.32 43 -10 43 Z M-6 45 C-6.33 45.66 -6.66 46.32 -7 47 C-6.34 47 -5.68 47 -5 47 C-5.33 46.34 -5.66 45.68 -6 45 Z M7 45 C8 47 8 47 8 47 Z M20 45 C20 45.33 20 45.66 20 46 C22.97 46 25.94 46 29 46 C29 45.67 29 45.34 29 45 C26.03 45 23.06 45 20 45 Z M4 47 C5 49 5 49 5 49 Z M6 47 C7 49 7 49 7 49 Z " fill="#FDFDFD" transform="translate(32,0)"/>
<path d="M0 0 C2.31 0 4.62 0 7 0 C7 2.64 7 5.28 7 8 C4.625 8.625 4.625 8.625 2 9 C-0 7 -0 7 -0.125 3.375 C-0.08375 2.26125 -0.0425 1.1475 0 0 Z " fill="#FEFEFE" transform="translate(0,24)"/>
</svg>
